<svg xmlns="http://www.w3.org/2000/svg" version="1.1" xmlns:xlink="http://www.w3.org/1999/xlink" viewBox="0 0 200 200" width="200" height="200"><rect width="200" height="200" fill="url('#gradient')"></rect><defs><linearGradient id="gradient" gradientTransform="rotate(45 0.5 0.5)"><stop offset="0%" stop-color="#ffb0d7"></stop><stop offset="100%" stop-color="#f5beff"></stop></linearGradient></defs><g><g fill="#cd57b9" transform="matrix(1.6347671840354767,0,0,1.6347671840354767,9.00967932429387,108.7717361292025)" stroke="#73515f" stroke-width="0.2"><path d="M11.65-12.46L4.92-2.64L11.72-2.64L11.72 0L0.64 0L0.64-1.81L7.42-11.57L0.61-11.57L0.61-14.22L11.65-14.22L11.65-12.46ZM12.51-4.82L12.50-5.38Q12.50-6.96 13.12-8.20Q13.73-9.43 14.88-10.10Q16.04-10.76 17.59-10.76L17.59-10.76Q19.96-10.76 21.33-9.29Q22.70-7.82 22.70-5.29L22.70-5.29L22.70-5.18Q22.70-2.71 21.32-1.25Q19.95 0.20 17.61 0.20L17.61 0.20Q15.35 0.20 13.98-1.16Q12.62-2.51 12.51-4.82L12.51-4.82ZM15.80-5.77L15.79-5.18Q15.79-3.71 16.25-3.03Q16.71-2.34 17.61-2.34L17.61-2.34Q19.37-2.34 19.40-5.05L19.40-5.05L19.40-5.38Q19.40-8.22 17.59-8.22L17.59-8.22Q15.94-8.22 15.80-5.77L15.80-5.77ZM23.73-5.36L23.73-5.36Q23.73-7.87 24.81-9.32Q25.90-10.76 27.84-10.76L27.84-10.76Q29.26-10.76 30.22-9.65L30.22-9.65L30.22-15L33.53-15L33.53 0L30.57 0L30.40-1.13Q29.38 0.20 27.82 0.20L27.82 0.20Q25.94 0.20 24.83-1.25Q23.73-2.70 23.73-5.36ZM27.03-5.76L27.02-5.16Q27.02-2.34 28.66-2.34L28.66-2.34Q29.76-2.34 30.22-3.26L30.22-3.26L30.22-7.29Q29.78-8.22 28.68-8.22L28.68-8.22Q27.16-8.22 27.03-5.76L27.03-5.76ZM38.87-10.57L38.87 0L35.57 0L35.57-10.57L38.87-10.57ZM35.37-13.29L35.37-13.29Q35.37-13.99 35.88-14.44Q36.39-14.89 37.20-14.89Q38.01-14.89 38.52-14.44Q39.02-13.99 39.02-13.29Q39.02-12.59 38.52-12.14Q38.01-11.69 37.20-11.69Q36.39-11.69 35.88-12.14Q35.37-12.59 35.37-13.29ZM50.14 0L46.85 0Q46.67-0.32 46.53-0.95L46.53-0.95Q45.63 0.20 43.99 0.20L43.99 0.20Q42.50 0.20 41.46-0.71Q40.41-1.61 40.41-2.98L40.41-2.98Q40.41-4.70 41.68-5.58Q42.95-6.46 45.37-6.46L45.37-6.46L46.39-6.46L46.39-7.01Q46.39-8.47 45.13-8.47L45.13-8.47Q43.96-8.47 43.96-7.31L43.96-7.31L40.66-7.31Q40.66-8.85 41.97-9.80Q43.27-10.76 45.29-10.76Q47.31-10.76 48.49-9.78Q49.66-8.79 49.69-7.07L49.69-7.07L49.69-2.39Q49.71-0.94 50.14-0.17L50.14-0.17L50.14 0ZM44.79-2.15L44.79-2.15Q45.40-2.15 45.81-2.41Q46.21-2.68 46.39-3.01L46.39-3.01L46.39-4.70L45.43-4.70Q43.71-4.70 43.71-3.15L43.71-3.15Q43.71-2.71 44.01-2.43Q44.32-2.15 44.79-2.15ZM55.98-2.34L55.98-2.34Q56.67-2.34 57.05-2.72Q57.43-3.10 57.42-3.77L57.42-3.77L60.51-3.77Q60.51-2.03 59.26-0.92Q58.02 0.20 56.05 0.20L56.05 0.20Q53.75 0.20 52.42-1.25Q51.09-2.70 51.09-5.25L51.09-5.25L51.09-5.39Q51.09-6.99 51.68-8.22Q52.28-9.44 53.39-10.10Q54.50-10.76 56.03-10.76L56.03-10.76Q58.09-10.76 59.30-9.62Q60.51-8.48 60.51-6.52L60.51-6.52L57.42-6.52Q57.42-7.34 57.02-7.78Q56.62-8.22 55.95-8.22L55.95-8.22Q54.67-8.22 54.45-6.59L54.45-6.59Q54.38-6.07 54.38-5.17L54.38-5.17Q54.38-3.57 54.77-2.96Q55.15-2.34 55.98-2.34ZM70.15-4.81L73.55-4.81Q73.49-3.33 72.75-2.19Q72.02-1.05 70.70-0.43Q69.38 0.20 67.68 0.20L67.68 0.20Q64.87 0.20 63.26-1.63Q61.65-3.46 61.65-6.79L61.65-6.79L61.65-7.49Q61.65-9.58 62.38-11.15Q63.11-12.71 64.47-13.57Q65.84-14.42 67.64-14.42L67.64-14.42Q70.22-14.42 71.80-13.06Q73.37-11.70 73.58-9.31L73.58-9.31L70.17-9.31Q70.13-10.61 69.51-11.17Q68.90-11.74 67.64-11.74L67.64-11.74Q66.36-11.74 65.76-10.78Q65.17-9.82 65.14-7.72L65.14-7.72L65.14-6.72Q65.14-4.44 65.71-3.47Q66.28-2.49 67.68-2.49L67.68-2.49Q68.86-2.49 69.48-3.05Q70.11-3.60 70.15-4.81L70.15-4.81ZM77.58-10.57L79.25-4.61L81.01-10.57L84.53-10.57L80.22 1.77L80.04 2.22Q79.12 4.27 76.80 4.27L76.80 4.27Q76.15 4.27 75.44 4.07L75.44 4.07L75.44 1.72L75.87 1.72Q76.56 1.72 76.93 1.52Q77.29 1.32 77.47 0.80L77.47 0.80L77.73 0.10L74.06-10.57L77.58-10.57ZM89.73-2.34L89.73-2.34Q90.42-2.34 90.80-2.72Q91.18-3.10 91.17-3.77L91.17-3.77L94.26-3.77Q94.26-2.03 93.01-0.92Q91.77 0.20 89.80 0.20L89.80 0.20Q87.50 0.20 86.17-1.25Q84.84-2.70 84.84-5.25L84.84-5.25L84.84-5.39Q84.84-6.99 85.43-8.22Q86.03-9.44 87.14-10.10Q88.25-10.76 89.78-10.76L89.78-10.76Q91.84-10.76 93.05-9.62Q94.26-8.48 94.26-6.52L94.26-6.52L91.17-6.52Q91.17-7.34 90.77-7.78Q90.37-8.22 89.70-8.22L89.70-8.22Q88.42-8.22 88.20-6.59L88.20-6.59Q88.13-6.07 88.13-5.17L88.13-5.17Q88.13-3.57 88.52-2.96Q88.90-2.34 89.73-2.34ZM99.12-15L99.12 0L95.82 0L95.82-15L99.12-15ZM106.26 0.20L106.26 0.20Q103.83 0.20 102.32-1.25Q100.82-2.71 100.82-5.03L100.82-5.03L100.82-5.30Q100.82-6.92 101.42-8.16Q102.02-9.40 103.17-10.08Q104.33-10.76 105.91-10.76L105.91-10.76Q108.13-10.76 109.42-9.38Q110.71-8.00 110.71-5.53L110.71-5.53L110.71-4.25L104.17-4.25Q104.35-3.36 104.94-2.85Q105.54-2.34 106.48-2.34L106.48-2.34Q108.05-2.34 108.93-3.44L108.93-3.44L110.43-1.66Q109.81-0.81 108.69-0.31Q107.56 0.20 106.26 0.20ZM105.89-8.22L105.89-8.22Q104.44-8.22 104.17-6.31L104.17-6.31L107.49-6.31L107.49-6.56Q107.51-7.35 107.09-7.79Q106.67-8.22 105.89-8.22Z"></path></g></g></svg>